<svg width="2126" height="2126" viewBox="0 0 2126 2126" fill="none" xmlns="http://www.w3.org/2000/svg">
<path d="M2116.69 1201.72C2110.88 1245.87 2102.29 1289.61 2090.99 1332.69L1063 1063L2116.69 1201.72Z" fill="url(#paint0_radial_6324_737)" fill-opacity="0.22"/>
<path d="M2125.74 1053.73C2126.03 1087.12 2124.75 1120.51 2121.9 1153.78L1063 1063L2125.74 1053.73Z" fill="url(#paint1_radial_6324_737)" fill-opacity="0.22"/>
<path d="M1709.98 1906.16C1674.65 1933.27 1637.65 1958.13 1599.2 1980.6L1063 1063L1709.98 1906.16Z" fill="url(#paint2_radial_6324_737)" fill-opacity="0.22"/>
<path d="M924.279 2116.69C880.128 2110.88 836.385 2102.29 793.311 2090.99L1063 1063L924.279 2116.69Z" fill="url(#paint3_radial_6324_737)" fill-opacity="0.22"/>
<path d="M219.839 1709.98C192.729 1674.65 167.867 1637.65 145.399 1599.2L1063 1063L219.839 1709.98Z" fill="url(#paint4_radial_6324_737)" fill-opacity="0.22"/>
<path d="M1.23002 1016.64C4.98599 930.616 19.1828 845.365 43.5083 762.765L1063 1063L1.23002 1016.64Z" fill="url(#paint5_radial_6324_737)" fill-opacity="0.22"/>
<path d="M401.403 231.259C447.86 194.305 497.331 161.309 549.297 132.616L1063 1063L401.403 231.259Z" fill="url(#paint6_radial_6324_737)" fill-opacity="0.22"/>
<path d="M1109.36 1.22992C1158.75 3.38662 1207.94 8.98776 1256.56 17.9925L1063 1063L1109.36 1.22992Z" fill="url(#paint7_radial_6324_737)" fill-opacity="0.22"/>
<path d="M1391.42 52.2346C1370.67 45.4933 1349.72 39.3924 1328.6 33.9406L1063 1063L1391.42 52.2346Z" fill="url(#paint8_radial_6324_737)" fill-opacity="0.22"/>
<path d="M1906.16 416.02C1933.27 451.349 1958.13 488.348 1980.6 526.797L1063 1063L1906.16 416.02Z" fill="url(#paint9_radial_6324_737)" fill-opacity="0.22"/>
<path d="M2044.88 1469.71C2019.31 1531.45 1987.97 1590.64 1951.28 1646.49L1063 1063L2044.88 1469.71Z" fill="url(#paint10_radial_6324_737)" fill-opacity="0.22"/>
<path d="M1469.71 2044.88C1407.97 2070.46 1343.96 2090.15 1278.52 2103.7L1063 1063L1469.71 2044.88Z" fill="url(#paint11_radial_6324_737)" fill-opacity="0.22"/>
<path d="M588.789 2014.12C528.984 1984.3 472.125 1948.91 418.966 1908.41L1063 1063L588.789 2014.12Z" fill="url(#paint12_radial_6324_737)" fill-opacity="0.22"/>
<path d="M736.604 2074.42C706.58 2064.73 677.002 2053.71 647.959 2041.39L1063 1063L736.604 2074.42Z" fill="url(#paint13_radial_6324_737)" fill-opacity="0.22"/>
<path d="M81.1181 1469.71C55.5449 1407.97 35.8518 1343.96 22.3003 1278.52L1063 1063L81.1181 1469.71Z" fill="url(#paint14_radial_6324_737)" fill-opacity="0.22"/>
<path d="M81.1179 656.291C106.691 594.552 138.03 535.362 174.719 479.509L1063 1063L81.1179 656.291Z" fill="url(#paint15_radial_6324_737)" fill-opacity="0.22"/>
<path d="M656.291 81.118C718.03 55.5448 782.044 35.8517 847.481 22.3002L1063 1063L656.291 81.118Z" fill="url(#paint16_radial_6324_737)" fill-opacity="0.22"/>
<path d="M1469.71 81.1178C1531.45 106.691 1590.64 138.03 1646.49 174.719L1063 1063L1469.71 81.1178Z" fill="url(#paint17_radial_6324_737)" fill-opacity="0.22"/>
<path d="M2044.88 656.291C2070.46 718.03 2090.15 782.044 2103.7 847.481L1063 1063L2044.88 656.291Z" fill="url(#paint18_radial_6324_737)" fill-opacity="0.22"/>
<path d="M1906.16 1709.98C1865.48 1763 1819.89 1812.06 1769.99 1856.51L1063 1063L1906.16 1709.98Z" fill="url(#paint19_radial_6324_737)" fill-opacity="0.22"/>
<path d="M1201.72 2116.69C1135.47 2125.41 1068.54 2127.87 1001.82 2124.02L1063 1063L1201.72 2116.69Z" fill="url(#paint20_radial_6324_737)" fill-opacity="0.22"/>
<path d="M368.462 1867.44C330.086 1834.31 294.13 1798.47 260.87 1760.2L1063 1063L368.462 1867.44Z" fill="url(#paint21_radial_6324_737)" fill-opacity="0.22"/>
<path d="M9.31098 1201.72C3.6206 1158.5 0.59513 1114.97 0.251709 1071.37L1063 1063L9.31098 1201.72Z" fill="url(#paint22_radial_6324_737)" fill-opacity="0.22"/>
<path d="M219.839 416.02C257.157 367.386 298.613 322.071 343.744 280.584L1063 1063L219.839 416.02Z" fill="url(#paint23_radial_6324_737)" fill-opacity="0.22"/>
<path d="M905.911 11.8924C949.954 5.31007 994.367 1.50251 1038.89 0.492188L1063 1063L905.911 11.8924Z" fill="url(#paint24_radial_6324_737)" fill-opacity="0.22"/>
<path d="M1709.98 219.839C1750.33 250.797 1788.4 284.611 1823.9 321.02L1063 1063L1709.98 219.839Z" fill="url(#paint25_radial_6324_737)" fill-opacity="0.22"/>
<path d="M2116.69 924.279C2119.59 946.349 2121.81 968.505 2123.32 990.714L1063 1063L2116.69 924.279Z" fill="url(#paint26_radial_6324_737)" fill-opacity="0.22"/>
<defs>
<radialGradient id="paint0_radial_6324_737" cx="0" cy="0" r="1" gradientUnits="userSpaceOnUse" gradientTransform="translate(1063 1063) rotate(45) scale(1062.78)">
<stop stop-color="white"/>
<stop offset="1" stop-color="white" stop-opacity="0"/>
</radialGradient>
<radialGradient id="paint1_radial_6324_737" cx="0" cy="0" r="1" gradientUnits="userSpaceOnUse" gradientTransform="translate(1063 1063) rotate(45) scale(1062.78)">
<stop stop-color="white"/>
<stop offset="1" stop-color="white" stop-opacity="0"/>
</radialGradient>
<radialGradient id="paint2_radial_6324_737" cx="0" cy="0" r="1" gradientUnits="userSpaceOnUse" gradientTransform="translate(1063 1063) rotate(45) scale(1062.78)">
<stop stop-color="white"/>
<stop offset="1" stop-color="white" stop-opacity="0"/>
</radialGradient>
<radialGradient id="paint3_radial_6324_737" cx="0" cy="0" r="1" gradientUnits="userSpaceOnUse" gradientTransform="translate(1063 1063) rotate(45) scale(1062.78)">
<stop stop-color="white"/>
<stop offset="1" stop-color="white" stop-opacity="0"/>
</radialGradient>
<radialGradient id="paint4_radial_6324_737" cx="0" cy="0" r="1" gradientUnits="userSpaceOnUse" gradientTransform="translate(1063 1063) rotate(45) scale(1062.78)">
<stop stop-color="white"/>
<stop offset="1" stop-color="white" stop-opacity="0"/>
</radialGradient>
<radialGradient id="paint5_radial_6324_737" cx="0" cy="0" r="1" gradientUnits="userSpaceOnUse" gradientTransform="translate(1063 1063) rotate(45) scale(1062.78)">
<stop stop-color="white"/>
<stop offset="1" stop-color="white" stop-opacity="0"/>
</radialGradient>
<radialGradient id="paint6_radial_6324_737" cx="0" cy="0" r="1" gradientUnits="userSpaceOnUse" gradientTransform="translate(1063 1063) rotate(45) scale(1062.78)">
<stop stop-color="white"/>
<stop offset="1" stop-color="white" stop-opacity="0"/>
</radialGradient>
<radialGradient id="paint7_radial_6324_737" cx="0" cy="0" r="1" gradientUnits="userSpaceOnUse" gradientTransform="translate(1063 1063) rotate(45) scale(1062.78)">
<stop stop-color="white"/>
<stop offset="1" stop-color="white" stop-opacity="0"/>
</radialGradient>
<radialGradient id="paint8_radial_6324_737" cx="0" cy="0" r="1" gradientUnits="userSpaceOnUse" gradientTransform="translate(1063 1063) rotate(45) scale(1062.78)">
<stop stop-color="white"/>
<stop offset="1" stop-color="white" stop-opacity="0"/>
</radialGradient>
<radialGradient id="paint9_radial_6324_737" cx="0" cy="0" r="1" gradientUnits="userSpaceOnUse" gradientTransform="translate(1063 1063) rotate(45) scale(1062.78)">
<stop stop-color="white"/>
<stop offset="1" stop-color="white" stop-opacity="0"/>
</radialGradient>
<radialGradient id="paint10_radial_6324_737" cx="0" cy="0" r="1" gradientUnits="userSpaceOnUse" gradientTransform="translate(1063 1063) rotate(45) scale(1062.78)">
<stop stop-color="white"/>
<stop offset="1" stop-color="white" stop-opacity="0"/>
</radialGradient>
<radialGradient id="paint11_radial_6324_737" cx="0" cy="0" r="1" gradientUnits="userSpaceOnUse" gradientTransform="translate(1063 1063) rotate(45) scale(1062.78)">
<stop stop-color="white"/>
<stop offset="1" stop-color="white" stop-opacity="0"/>
</radialGradient>
<radialGradient id="paint12_radial_6324_737" cx="0" cy="0" r="1" gradientUnits="userSpaceOnUse" gradientTransform="translate(1063 1063) rotate(45) scale(1062.78)">
<stop stop-color="white"/>
<stop offset="1" stop-color="white" stop-opacity="0"/>
</radialGradient>
<radialGradient id="paint13_radial_6324_737" cx="0" cy="0" r="1" gradientUnits="userSpaceOnUse" gradientTransform="translate(1063 1063) rotate(45) scale(1062.78)">
<stop stop-color="white"/>
<stop offset="1" stop-color="white" stop-opacity="0"/>
</radialGradient>
<radialGradient id="paint14_radial_6324_737" cx="0" cy="0" r="1" gradientUnits="userSpaceOnUse" gradientTransform="translate(1063 1063) rotate(45) scale(1062.78)">
<stop stop-color="white"/>
<stop offset="1" stop-color="white" stop-opacity="0"/>
</radialGradient>
<radialGradient id="paint15_radial_6324_737" cx="0" cy="0" r="1" gradientUnits="userSpaceOnUse" gradientTransform="translate(1063 1063) rotate(45) scale(1062.78)">
<stop stop-color="white"/>
<stop offset="1" stop-color="white" stop-opacity="0"/>
</radialGradient>
<radialGradient id="paint16_radial_6324_737" cx="0" cy="0" r="1" gradientUnits="userSpaceOnUse" gradientTransform="translate(1063 1063) rotate(45) scale(1062.78)">
<stop stop-color="white"/>
<stop offset="1" stop-color="white" stop-opacity="0"/>
</radialGradient>
<radialGradient id="paint17_radial_6324_737" cx="0" cy="0" r="1" gradientUnits="userSpaceOnUse" gradientTransform="translate(1063 1063) rotate(45) scale(1062.78)">
<stop stop-color="white"/>
<stop offset="1" stop-color="white" stop-opacity="0"/>
</radialGradient>
<radialGradient id="paint18_radial_6324_737" cx="0" cy="0" r="1" gradientUnits="userSpaceOnUse" gradientTransform="translate(1063 1063) rotate(45) scale(1062.78)">
<stop stop-color="white"/>
<stop offset="1" stop-color="white" stop-opacity="0"/>
</radialGradient>
<radialGradient id="paint19_radial_6324_737" cx="0" cy="0" r="1" gradientUnits="userSpaceOnUse" gradientTransform="translate(1063 1063) rotate(45) scale(1062.78)">
<stop stop-color="white"/>
<stop offset="1" stop-color="white" stop-opacity="0"/>
</radialGradient>
<radialGradient id="paint20_radial_6324_737" cx="0" cy="0" r="1" gradientUnits="userSpaceOnUse" gradientTransform="translate(1063 1063) rotate(45) scale(1062.78)">
<stop stop-color="white"/>
<stop offset="1" stop-color="white" stop-opacity="0"/>
</radialGradient>
<radialGradient id="paint21_radial_6324_737" cx="0" cy="0" r="1" gradientUnits="userSpaceOnUse" gradientTransform="translate(1063 1063) rotate(45) scale(1062.78)">
<stop stop-color="white"/>
<stop offset="1" stop-color="white" stop-opacity="0"/>
</radialGradient>
<radialGradient id="paint22_radial_6324_737" cx="0" cy="0" r="1" gradientUnits="userSpaceOnUse" gradientTransform="translate(1063 1063) rotate(45) scale(1062.78)">
<stop stop-color="white"/>
<stop offset="1" stop-color="white" stop-opacity="0"/>
</radialGradient>
<radialGradient id="paint23_radial_6324_737" cx="0" cy="0" r="1" gradientUnits="userSpaceOnUse" gradientTransform="translate(1063 1063) rotate(45) scale(1062.78)">
<stop stop-color="white"/>
<stop offset="1" stop-color="white" stop-opacity="0"/>
</radialGradient>
<radialGradient id="paint24_radial_6324_737" cx="0" cy="0" r="1" gradientUnits="userSpaceOnUse" gradientTransform="translate(1063 1063) rotate(45) scale(1062.78)">
<stop stop-color="white"/>
<stop offset="1" stop-color="white" stop-opacity="0"/>
</radialGradient>
<radialGradient id="paint25_radial_6324_737" cx="0" cy="0" r="1" gradientUnits="userSpaceOnUse" gradientTransform="translate(1063 1063) rotate(45) scale(1062.78)">
<stop stop-color="white"/>
<stop offset="1" stop-color="white" stop-opacity="0"/>
</radialGradient>
<radialGradient id="paint26_radial_6324_737" cx="0" cy="0" r="1" gradientUnits="userSpaceOnUse" gradientTransform="translate(1063 1063) rotate(45) scale(1062.78)">
<stop stop-color="white"/>
<stop offset="1" stop-color="white" stop-opacity="0"/>
</radialGradient>
</defs>
</svg>
