<svg width="1501" height="1501" viewBox="0 0 1501 1501" fill="none" xmlns="http://www.w3.org/2000/svg">
<path d="M1500.22 750.219C1500.22 765.928 1499.73 781.633 1498.74 797.312L750.219 750.219H1500.22Z" fill="url(#paint0_radial_6316_550)" fill-opacity="0.22"/>
<path d="M1280.55 1280.55C1269.44 1291.66 1257.99 1302.41 1246.2 1312.8L750.219 750.219L1280.55 1280.55Z" fill="url(#paint1_radial_6316_550)" fill-opacity="0.22"/>
<path d="M750.218 1500.22C734.509 1500.22 718.804 1499.73 703.126 1498.74L750.219 750.219L750.218 1500.22Z" fill="url(#paint2_radial_6316_550)" fill-opacity="0.22"/>
<path d="M219.889 1280.55C208.78 1269.44 198.024 1257.99 187.635 1246.2L750.219 750.219L219.889 1280.55Z" fill="url(#paint3_radial_6316_550)" fill-opacity="0.22"/>
<path d="M0.218506 750.219C0.218506 734.51 0.712067 718.804 1.69846 703.126L750.219 750.219L0.218506 750.219Z" fill="url(#paint4_radial_6316_550)" fill-opacity="0.22"/>
<path d="M219.888 219.889C230.997 208.781 242.451 198.024 254.235 187.636L750.219 750.219L219.888 219.889Z" fill="url(#paint5_radial_6316_550)" fill-opacity="0.22"/>
<path d="M750.218 0.21875C765.928 0.21875 781.633 0.712311 797.311 1.6987L750.219 750.219L750.218 0.21875Z" fill="url(#paint6_radial_6316_550)" fill-opacity="0.22"/>
<path d="M1280.55 219.889C1291.66 230.997 1302.41 242.451 1312.8 254.235L750.219 750.219L1280.55 219.889Z" fill="url(#paint7_radial_6316_550)" fill-opacity="0.22"/>
<path d="M1493.8 848.113C1491.75 863.688 1489.21 879.195 1486.19 894.61L750.219 750.219L1493.8 848.113Z" fill="url(#paint8_radial_6316_550)" fill-opacity="0.22"/>
<path d="M1206.79 1345.23C1194.33 1354.8 1181.57 1363.97 1168.53 1372.73L750.219 750.219L1206.79 1345.23Z" fill="url(#paint9_radial_6316_550)" fill-opacity="0.22"/>
<path d="M652.324 1493.8C636.749 1491.75 621.242 1489.21 605.827 1486.19L750.219 750.219L652.324 1493.8Z" fill="url(#paint10_radial_6316_550)" fill-opacity="0.22"/>
<path d="M155.204 1206.79C145.64 1194.33 136.471 1181.57 127.709 1168.53L750.219 750.219L155.204 1206.79Z" fill="url(#paint11_radial_6316_550)" fill-opacity="0.22"/>
<path d="M6.63486 652.324C8.68533 636.749 11.2246 621.243 14.249 605.827L750.219 750.219L6.63486 652.324Z" fill="url(#paint12_radial_6316_550)" fill-opacity="0.22"/>
<path d="M293.648 155.204C306.111 145.641 318.871 136.471 331.91 127.71L750.219 750.219L293.648 155.204Z" fill="url(#paint13_radial_6316_550)" fill-opacity="0.22"/>
<path d="M848.113 6.6351C863.688 8.68557 879.195 11.2249 894.61 14.2493L750.219 750.219L848.113 6.6351Z" fill="url(#paint14_radial_6316_550)" fill-opacity="0.22"/>
<path d="M1345.23 293.648C1354.8 306.111 1363.97 318.871 1372.73 331.91L750.219 750.219L1345.23 293.648Z" fill="url(#paint15_radial_6316_550)" fill-opacity="0.22"/>
<path d="M1474.66 944.333C1470.6 959.507 1466.06 974.55 1461.04 989.438L750.219 750.219L1474.66 944.333Z" fill="url(#paint16_radial_6316_550)" fill-opacity="0.22"/>
<path d="M1125.22 1399.74C1111.61 1407.59 1097.77 1415.02 1083.69 1422L750.219 750.219L1125.22 1399.74Z" fill="url(#paint17_radial_6316_550)" fill-opacity="0.22"/>
<path d="M556.104 1474.66C540.93 1470.6 525.888 1466.06 510.999 1461.05L750.219 750.219L556.104 1474.66Z" fill="url(#paint18_radial_6316_550)" fill-opacity="0.22"/>
<path d="M100.7 1125.22C92.845 1111.61 85.4197 1097.77 78.4348 1083.7L750.219 750.219L100.7 1125.22Z" fill="url(#paint19_radial_6316_550)" fill-opacity="0.22"/>
<path d="M25.7741 556.105C29.84 540.931 34.3816 525.888 39.3922 510.999L750.219 750.219L25.7741 556.105Z" fill="url(#paint20_radial_6316_550)" fill-opacity="0.22"/>
<path d="M375.219 100.7C388.823 92.8452 402.671 85.42 416.742 78.4351L750.219 750.219L375.219 100.7Z" fill="url(#paint21_radial_6316_550)" fill-opacity="0.22"/>
<path d="M944.333 25.7744C959.507 29.8402 974.549 34.3818 989.438 39.3924L750.219 750.219L944.333 25.7744Z" fill="url(#paint22_radial_6316_550)" fill-opacity="0.22"/>
<path d="M1399.74 375.219C1407.59 388.823 1415.02 402.671 1422 416.742L750.219 750.219L1399.74 375.219Z" fill="url(#paint23_radial_6316_550)" fill-opacity="0.22"/>
<path d="M1443.13 1037.23C1437.12 1051.74 1430.65 1066.07 1423.74 1080.17L750.219 750.219L1443.13 1037.23Z" fill="url(#paint24_radial_6316_550)" fill-opacity="0.22"/>
<path d="M1037.23 1443.13C1022.72 1449.14 1008.02 1454.69 993.157 1459.78L750.219 750.219L1037.23 1443.13Z" fill="url(#paint25_radial_6316_550)" fill-opacity="0.22"/>
<path d="M463.206 1443.13C448.692 1437.12 434.371 1430.65 420.264 1423.74L750.219 750.219L463.206 1443.13Z" fill="url(#paint26_radial_6316_550)" fill-opacity="0.22"/>
<path d="M57.309 1037.23C51.2974 1022.72 45.7432 1008.02 40.6547 993.157L750.219 750.219L57.309 1037.23Z" fill="url(#paint27_radial_6316_550)" fill-opacity="0.22"/>
<path d="M57.3089 463.206C63.3205 448.693 69.7867 434.372 76.6978 420.264L750.219 750.219L57.3089 463.206Z" fill="url(#paint28_radial_6316_550)" fill-opacity="0.22"/>
<path d="M463.206 57.3093C477.719 51.2976 492.418 45.7434 507.281 40.6549L750.219 750.219L463.206 57.3093Z" fill="url(#paint29_radial_6316_550)" fill-opacity="0.22"/>
<path d="M1037.23 57.3091C1051.74 63.3208 1066.07 69.787 1080.17 76.6981L750.219 750.219L1037.23 57.3091Z" fill="url(#paint30_radial_6316_550)" fill-opacity="0.22"/>
<path d="M1443.13 463.206C1449.14 477.72 1454.69 492.418 1459.78 507.281L750.219 750.219L1443.13 463.206Z" fill="url(#paint31_radial_6316_550)" fill-opacity="0.22"/>
<path d="M1399.74 1125.22C1391.88 1138.82 1383.6 1152.18 1374.91 1165.26L750.219 750.219L1399.74 1125.22Z" fill="url(#paint32_radial_6316_550)" fill-opacity="0.22"/>
<path d="M944.333 1474.66C929.159 1478.73 913.861 1482.32 898.462 1485.42L750.219 750.219L944.333 1474.66Z" fill="url(#paint33_radial_6316_550)" fill-opacity="0.22"/>
<path d="M375.218 1399.74C361.614 1391.88 348.259 1383.6 335.175 1374.91L750.219 750.219L375.218 1399.74Z" fill="url(#paint34_radial_6316_550)" fill-opacity="0.22"/>
<path d="M25.7743 944.333C21.7085 929.159 18.1203 913.861 15.0153 898.462L750.219 750.219L25.7743 944.333Z" fill="url(#paint35_radial_6316_550)" fill-opacity="0.22"/>
<path d="M100.699 375.219C108.554 361.614 116.834 348.26 125.528 335.175L750.219 750.219L100.699 375.219Z" fill="url(#paint36_radial_6316_550)" fill-opacity="0.22"/>
<path d="M556.104 25.7746C571.278 21.7087 586.576 18.1206 601.976 15.0155L750.219 750.219L556.104 25.7746Z" fill="url(#paint37_radial_6316_550)" fill-opacity="0.22"/>
<path d="M1125.22 100.7C1138.82 108.554 1152.18 116.834 1165.26 125.528L750.219 750.219L1125.22 100.7Z" fill="url(#paint38_radial_6316_550)" fill-opacity="0.22"/>
<path d="M1474.66 556.105C1478.73 571.279 1482.32 586.576 1485.42 601.976L750.219 750.219L1474.66 556.105Z" fill="url(#paint39_radial_6316_550)" fill-opacity="0.22"/>
<path d="M1345.23 1206.79C1335.67 1219.25 1325.72 1231.41 1315.39 1243.25L750.219 750.219L1345.23 1206.79Z" fill="url(#paint40_radial_6316_550)" fill-opacity="0.22"/>
<path d="M848.113 1493.8C832.538 1495.85 816.903 1497.41 801.23 1498.48L750.219 750.219L848.113 1493.8Z" fill="url(#paint41_radial_6316_550)" fill-opacity="0.22"/>
<path d="M293.647 1345.23C281.184 1335.67 269.025 1325.72 257.187 1315.39L750.219 750.219L293.647 1345.23Z" fill="url(#paint42_radial_6316_550)" fill-opacity="0.22"/>
<path d="M6.63504 848.113C4.58457 832.539 3.02394 816.903 1.95547 801.23L750.219 750.219L6.63504 848.113Z" fill="url(#paint43_radial_6316_550)" fill-opacity="0.22"/>
<path d="M155.203 293.648C164.767 281.185 174.719 269.025 185.046 257.187L750.219 750.219L155.203 293.648Z" fill="url(#paint44_radial_6316_550)" fill-opacity="0.22"/>
<path d="M652.324 6.63528C667.899 4.58481 683.534 3.02418 699.207 1.95572L750.219 750.219L652.324 6.63528Z" fill="url(#paint45_radial_6316_550)" fill-opacity="0.22"/>
<path d="M1206.79 155.204C1219.25 164.767 1231.41 174.719 1243.25 185.046L750.219 750.219L1206.79 155.204Z" fill="url(#paint46_radial_6316_550)" fill-opacity="0.22"/>
<path d="M1493.8 652.324C1495.85 667.899 1497.41 683.534 1498.48 699.207L750.219 750.219L1493.8 652.324Z" fill="url(#paint47_radial_6316_550)" fill-opacity="0.22"/>
<defs>
<radialGradient id="paint0_radial_6316_550" cx="0" cy="0" r="1" gradientUnits="userSpaceOnUse" gradientTransform="translate(750.219 750.219) rotate(45) scale(750)">
<stop stop-color="white"/>
<stop offset="1" stop-color="white" stop-opacity="0"/>
</radialGradient>
<radialGradient id="paint1_radial_6316_550" cx="0" cy="0" r="1" gradientUnits="userSpaceOnUse" gradientTransform="translate(750.219 750.219) rotate(45) scale(750)">
<stop stop-color="white"/>
<stop offset="1" stop-color="white" stop-opacity="0"/>
</radialGradient>
<radialGradient id="paint2_radial_6316_550" cx="0" cy="0" r="1" gradientUnits="userSpaceOnUse" gradientTransform="translate(750.219 750.219) rotate(45) scale(750)">
<stop stop-color="white"/>
<stop offset="1" stop-color="white" stop-opacity="0"/>
</radialGradient>
<radialGradient id="paint3_radial_6316_550" cx="0" cy="0" r="1" gradientUnits="userSpaceOnUse" gradientTransform="translate(750.219 750.219) rotate(45) scale(750)">
<stop stop-color="white"/>
<stop offset="1" stop-color="white" stop-opacity="0"/>
</radialGradient>
<radialGradient id="paint4_radial_6316_550" cx="0" cy="0" r="1" gradientUnits="userSpaceOnUse" gradientTransform="translate(750.219 750.219) rotate(45) scale(750)">
<stop stop-color="white"/>
<stop offset="1" stop-color="white" stop-opacity="0"/>
</radialGradient>
<radialGradient id="paint5_radial_6316_550" cx="0" cy="0" r="1" gradientUnits="userSpaceOnUse" gradientTransform="translate(750.219 750.219) rotate(45) scale(750)">
<stop stop-color="white"/>
<stop offset="1" stop-color="white" stop-opacity="0"/>
</radialGradient>
<radialGradient id="paint6_radial_6316_550" cx="0" cy="0" r="1" gradientUnits="userSpaceOnUse" gradientTransform="translate(750.219 750.219) rotate(45) scale(750)">
<stop stop-color="white"/>
<stop offset="1" stop-color="white" stop-opacity="0"/>
</radialGradient>
<radialGradient id="paint7_radial_6316_550" cx="0" cy="0" r="1" gradientUnits="userSpaceOnUse" gradientTransform="translate(750.219 750.219) rotate(45) scale(750)">
<stop stop-color="white"/>
<stop offset="1" stop-color="white" stop-opacity="0"/>
</radialGradient>
<radialGradient id="paint8_radial_6316_550" cx="0" cy="0" r="1" gradientUnits="userSpaceOnUse" gradientTransform="translate(750.219 750.219) rotate(45) scale(750)">
<stop stop-color="white"/>
<stop offset="1" stop-color="white" stop-opacity="0"/>
</radialGradient>
<radialGradient id="paint9_radial_6316_550" cx="0" cy="0" r="1" gradientUnits="userSpaceOnUse" gradientTransform="translate(750.219 750.219) rotate(45) scale(750)">
<stop stop-color="white"/>
<stop offset="1" stop-color="white" stop-opacity="0"/>
</radialGradient>
<radialGradient id="paint10_radial_6316_550" cx="0" cy="0" r="1" gradientUnits="userSpaceOnUse" gradientTransform="translate(750.219 750.219) rotate(45) scale(750)">
<stop stop-color="white"/>
<stop offset="1" stop-color="white" stop-opacity="0"/>
</radialGradient>
<radialGradient id="paint11_radial_6316_550" cx="0" cy="0" r="1" gradientUnits="userSpaceOnUse" gradientTransform="translate(750.219 750.219) rotate(45) scale(750)">
<stop stop-color="white"/>
<stop offset="1" stop-color="white" stop-opacity="0"/>
</radialGradient>
<radialGradient id="paint12_radial_6316_550" cx="0" cy="0" r="1" gradientUnits="userSpaceOnUse" gradientTransform="translate(750.219 750.219) rotate(45) scale(750)">
<stop stop-color="white"/>
<stop offset="1" stop-color="white" stop-opacity="0"/>
</radialGradient>
<radialGradient id="paint13_radial_6316_550" cx="0" cy="0" r="1" gradientUnits="userSpaceOnUse" gradientTransform="translate(750.219 750.219) rotate(45) scale(750)">
<stop stop-color="white"/>
<stop offset="1" stop-color="white" stop-opacity="0"/>
</radialGradient>
<radialGradient id="paint14_radial_6316_550" cx="0" cy="0" r="1" gradientUnits="userSpaceOnUse" gradientTransform="translate(750.219 750.219) rotate(45) scale(750)">
<stop stop-color="white"/>
<stop offset="1" stop-color="white" stop-opacity="0"/>
</radialGradient>
<radialGradient id="paint15_radial_6316_550" cx="0" cy="0" r="1" gradientUnits="userSpaceOnUse" gradientTransform="translate(750.219 750.219) rotate(45) scale(750)">
<stop stop-color="white"/>
<stop offset="1" stop-color="white" stop-opacity="0"/>
</radialGradient>
<radialGradient id="paint16_radial_6316_550" cx="0" cy="0" r="1" gradientUnits="userSpaceOnUse" gradientTransform="translate(750.219 750.219) rotate(45) scale(750)">
<stop stop-color="white"/>
<stop offset="1" stop-color="white" stop-opacity="0"/>
</radialGradient>
<radialGradient id="paint17_radial_6316_550" cx="0" cy="0" r="1" gradientUnits="userSpaceOnUse" gradientTransform="translate(750.219 750.219) rotate(45) scale(750)">
<stop stop-color="white"/>
<stop offset="1" stop-color="white" stop-opacity="0"/>
</radialGradient>
<radialGradient id="paint18_radial_6316_550" cx="0" cy="0" r="1" gradientUnits="userSpaceOnUse" gradientTransform="translate(750.219 750.219) rotate(45) scale(750)">
<stop stop-color="white"/>
<stop offset="1" stop-color="white" stop-opacity="0"/>
</radialGradient>
<radialGradient id="paint19_radial_6316_550" cx="0" cy="0" r="1" gradientUnits="userSpaceOnUse" gradientTransform="translate(750.219 750.219) rotate(45) scale(750)">
<stop stop-color="white"/>
<stop offset="1" stop-color="white" stop-opacity="0"/>
</radialGradient>
<radialGradient id="paint20_radial_6316_550" cx="0" cy="0" r="1" gradientUnits="userSpaceOnUse" gradientTransform="translate(750.219 750.219) rotate(45) scale(750)">
<stop stop-color="white"/>
<stop offset="1" stop-color="white" stop-opacity="0"/>
</radialGradient>
<radialGradient id="paint21_radial_6316_550" cx="0" cy="0" r="1" gradientUnits="userSpaceOnUse" gradientTransform="translate(750.219 750.219) rotate(45) scale(750)">
<stop stop-color="white"/>
<stop offset="1" stop-color="white" stop-opacity="0"/>
</radialGradient>
<radialGradient id="paint22_radial_6316_550" cx="0" cy="0" r="1" gradientUnits="userSpaceOnUse" gradientTransform="translate(750.219 750.219) rotate(45) scale(750)">
<stop stop-color="white"/>
<stop offset="1" stop-color="white" stop-opacity="0"/>
</radialGradient>
<radialGradient id="paint23_radial_6316_550" cx="0" cy="0" r="1" gradientUnits="userSpaceOnUse" gradientTransform="translate(750.219 750.219) rotate(45) scale(750)">
<stop stop-color="white"/>
<stop offset="1" stop-color="white" stop-opacity="0"/>
</radialGradient>
<radialGradient id="paint24_radial_6316_550" cx="0" cy="0" r="1" gradientUnits="userSpaceOnUse" gradientTransform="translate(750.219 750.219) rotate(45) scale(750)">
<stop stop-color="white"/>
<stop offset="1" stop-color="white" stop-opacity="0"/>
</radialGradient>
<radialGradient id="paint25_radial_6316_550" cx="0" cy="0" r="1" gradientUnits="userSpaceOnUse" gradientTransform="translate(750.219 750.219) rotate(45) scale(750)">
<stop stop-color="white"/>
<stop offset="1" stop-color="white" stop-opacity="0"/>
</radialGradient>
<radialGradient id="paint26_radial_6316_550" cx="0" cy="0" r="1" gradientUnits="userSpaceOnUse" gradientTransform="translate(750.219 750.219) rotate(45) scale(750)">
<stop stop-color="white"/>
<stop offset="1" stop-color="white" stop-opacity="0"/>
</radialGradient>
<radialGradient id="paint27_radial_6316_550" cx="0" cy="0" r="1" gradientUnits="userSpaceOnUse" gradientTransform="translate(750.219 750.219) rotate(45) scale(750)">
<stop stop-color="white"/>
<stop offset="1" stop-color="white" stop-opacity="0"/>
</radialGradient>
<radialGradient id="paint28_radial_6316_550" cx="0" cy="0" r="1" gradientUnits="userSpaceOnUse" gradientTransform="translate(750.219 750.219) rotate(45) scale(750)">
<stop stop-color="white"/>
<stop offset="1" stop-color="white" stop-opacity="0"/>
</radialGradient>
<radialGradient id="paint29_radial_6316_550" cx="0" cy="0" r="1" gradientUnits="userSpaceOnUse" gradientTransform="translate(750.219 750.219) rotate(45) scale(750)">
<stop stop-color="white"/>
<stop offset="1" stop-color="white" stop-opacity="0"/>
</radialGradient>
<radialGradient id="paint30_radial_6316_550" cx="0" cy="0" r="1" gradientUnits="userSpaceOnUse" gradientTransform="translate(750.219 750.219) rotate(45) scale(750)">
<stop stop-color="white"/>
<stop offset="1" stop-color="white" stop-opacity="0"/>
</radialGradient>
<radialGradient id="paint31_radial_6316_550" cx="0" cy="0" r="1" gradientUnits="userSpaceOnUse" gradientTransform="translate(750.219 750.219) rotate(45) scale(750)">
<stop stop-color="white"/>
<stop offset="1" stop-color="white" stop-opacity="0"/>
</radialGradient>
<radialGradient id="paint32_radial_6316_550" cx="0" cy="0" r="1" gradientUnits="userSpaceOnUse" gradientTransform="translate(750.219 750.219) rotate(45) scale(750)">
<stop stop-color="white"/>
<stop offset="1" stop-color="white" stop-opacity="0"/>
</radialGradient>
<radialGradient id="paint33_radial_6316_550" cx="0" cy="0" r="1" gradientUnits="userSpaceOnUse" gradientTransform="translate(750.219 750.219) rotate(45) scale(750)">
<stop stop-color="white"/>
<stop offset="1" stop-color="white" stop-opacity="0"/>
</radialGradient>
<radialGradient id="paint34_radial_6316_550" cx="0" cy="0" r="1" gradientUnits="userSpaceOnUse" gradientTransform="translate(750.219 750.219) rotate(45) scale(750)">
<stop stop-color="white"/>
<stop offset="1" stop-color="white" stop-opacity="0"/>
</radialGradient>
<radialGradient id="paint35_radial_6316_550" cx="0" cy="0" r="1" gradientUnits="userSpaceOnUse" gradientTransform="translate(750.219 750.219) rotate(45) scale(750)">
<stop stop-color="white"/>
<stop offset="1" stop-color="white" stop-opacity="0"/>
</radialGradient>
<radialGradient id="paint36_radial_6316_550" cx="0" cy="0" r="1" gradientUnits="userSpaceOnUse" gradientTransform="translate(750.219 750.219) rotate(45) scale(750)">
<stop stop-color="white"/>
<stop offset="1" stop-color="white" stop-opacity="0"/>
</radialGradient>
<radialGradient id="paint37_radial_6316_550" cx="0" cy="0" r="1" gradientUnits="userSpaceOnUse" gradientTransform="translate(750.219 750.219) rotate(45) scale(750)">
<stop stop-color="white"/>
<stop offset="1" stop-color="white" stop-opacity="0"/>
</radialGradient>
<radialGradient id="paint38_radial_6316_550" cx="0" cy="0" r="1" gradientUnits="userSpaceOnUse" gradientTransform="translate(750.219 750.219) rotate(45) scale(750)">
<stop stop-color="white"/>
<stop offset="1" stop-color="white" stop-opacity="0"/>
</radialGradient>
<radialGradient id="paint39_radial_6316_550" cx="0" cy="0" r="1" gradientUnits="userSpaceOnUse" gradientTransform="translate(750.219 750.219) rotate(45) scale(750)">
<stop stop-color="white"/>
<stop offset="1" stop-color="white" stop-opacity="0"/>
</radialGradient>
<radialGradient id="paint40_radial_6316_550" cx="0" cy="0" r="1" gradientUnits="userSpaceOnUse" gradientTransform="translate(750.219 750.219) rotate(45) scale(750)">
<stop stop-color="white"/>
<stop offset="1" stop-color="white" stop-opacity="0"/>
</radialGradient>
<radialGradient id="paint41_radial_6316_550" cx="0" cy="0" r="1" gradientUnits="userSpaceOnUse" gradientTransform="translate(750.219 750.219) rotate(45) scale(750)">
<stop stop-color="white"/>
<stop offset="1" stop-color="white" stop-opacity="0"/>
</radialGradient>
<radialGradient id="paint42_radial_6316_550" cx="0" cy="0" r="1" gradientUnits="userSpaceOnUse" gradientTransform="translate(750.219 750.219) rotate(45) scale(750)">
<stop stop-color="white"/>
<stop offset="1" stop-color="white" stop-opacity="0"/>
</radialGradient>
<radialGradient id="paint43_radial_6316_550" cx="0" cy="0" r="1" gradientUnits="userSpaceOnUse" gradientTransform="translate(750.219 750.219) rotate(45) scale(750)">
<stop stop-color="white"/>
<stop offset="1" stop-color="white" stop-opacity="0"/>
</radialGradient>
<radialGradient id="paint44_radial_6316_550" cx="0" cy="0" r="1" gradientUnits="userSpaceOnUse" gradientTransform="translate(750.219 750.219) rotate(45) scale(750)">
<stop stop-color="white"/>
<stop offset="1" stop-color="white" stop-opacity="0"/>
</radialGradient>
<radialGradient id="paint45_radial_6316_550" cx="0" cy="0" r="1" gradientUnits="userSpaceOnUse" gradientTransform="translate(750.219 750.219) rotate(45) scale(750)">
<stop stop-color="white"/>
<stop offset="1" stop-color="white" stop-opacity="0"/>
</radialGradient>
<radialGradient id="paint46_radial_6316_550" cx="0" cy="0" r="1" gradientUnits="userSpaceOnUse" gradientTransform="translate(750.219 750.219) rotate(45) scale(750)">
<stop stop-color="white"/>
<stop offset="1" stop-color="white" stop-opacity="0"/>
</radialGradient>
<radialGradient id="paint47_radial_6316_550" cx="0" cy="0" r="1" gradientUnits="userSpaceOnUse" gradientTransform="translate(750.219 750.219) rotate(45) scale(750)">
<stop stop-color="white"/>
<stop offset="1" stop-color="white" stop-opacity="0"/>
</radialGradient>
</defs>
</svg>
