<svg width="2126" height="2126" viewBox="0 0 2126 2126" fill="none" xmlns="http://www.w3.org/2000/svg">
<path d="M2116.69 1201.72C2110.88 1245.87 2102.29 1289.61 2090.99 1332.69L1063 1063L2116.69 1201.72Z" fill="url(#paint0_radial_6321_626)" fill-opacity="0.22"/>
<path d="M1709.98 1906.16C1674.65 1933.27 1637.65 1958.13 1599.2 1980.6L1063 1063L1709.98 1906.16Z" fill="url(#paint1_radial_6321_626)" fill-opacity="0.22"/>
<path d="M924.279 2116.69C880.128 2110.88 836.385 2102.29 793.311 2090.99L1063 1063L924.279 2116.69Z" fill="url(#paint2_radial_6321_626)" fill-opacity="0.22"/>
<path d="M219.839 1709.98C192.729 1674.65 167.867 1637.65 145.399 1599.2L1063 1063L219.839 1709.98Z" fill="url(#paint3_radial_6321_626)" fill-opacity="0.22"/>
<path d="M9.31082 924.279C15.1235 880.128 23.7054 836.386 35.0058 793.311L1063 1063L9.31082 924.279Z" fill="url(#paint4_radial_6321_626)" fill-opacity="0.22"/>
<path d="M416.02 219.839C451.35 192.729 488.349 167.867 526.798 145.399L1063 1063L416.02 219.839Z" fill="url(#paint5_radial_6321_626)" fill-opacity="0.22"/>
<path d="M1201.72 9.31082C1245.87 15.1235 1289.61 23.7054 1332.69 35.0058L1063 1063L1201.72 9.31082Z" fill="url(#paint6_radial_6321_626)" fill-opacity="0.22"/>
<path d="M1906.16 416.02C1933.27 451.35 1958.13 488.349 1980.6 526.798L1063 1063L1906.16 416.02Z" fill="url(#paint7_radial_6321_626)" fill-opacity="0.22"/>
<path d="M2044.88 1469.71C2027.84 1510.85 2008.23 1550.88 1986.17 1589.56L1063 1063L2044.88 1469.71Z" fill="url(#paint8_radial_6321_626)" fill-opacity="0.22"/>
<path d="M1469.71 2044.88C1428.57 2061.92 1386.39 2076.36 1343.44 2088.11L1063 1063L1469.71 2044.88Z" fill="url(#paint9_radial_6321_626)" fill-opacity="0.22"/>
<path d="M656.291 2044.88C615.148 2027.84 575.118 2008.23 536.436 1986.17L1063 1063L656.291 2044.88Z" fill="url(#paint10_radial_6321_626)" fill-opacity="0.22"/>
<path d="M81.1182 1469.71C64.0765 1428.57 49.6374 1386.39 37.8865 1343.44L1063 1063L81.1182 1469.71Z" fill="url(#paint11_radial_6321_626)" fill-opacity="0.22"/>
<path d="M81.118 656.291C98.1598 615.149 117.771 575.118 139.835 536.436L1063 1063L81.118 656.291Z" fill="url(#paint12_radial_6321_626)" fill-opacity="0.22"/>
<path d="M656.291 81.1182C697.434 64.0765 739.607 49.6374 782.561 37.8865L1063 1063L656.291 81.1182Z" fill="url(#paint13_radial_6321_626)" fill-opacity="0.22"/>
<path d="M1469.71 81.118C1510.85 98.1598 1550.88 117.771 1589.56 139.835L1063 1063L1469.71 81.118Z" fill="url(#paint14_radial_6321_626)" fill-opacity="0.22"/>
<path d="M2044.88 656.291C2061.92 697.434 2076.36 739.607 2088.11 782.561L1063 1063L2044.88 656.291Z" fill="url(#paint15_radial_6321_626)" fill-opacity="0.22"/>
<path d="M1906.16 1709.98C1879.05 1745.31 1849.75 1778.9 1818.42 1810.55L1063 1063L1906.16 1709.98Z" fill="url(#paint16_radial_6321_626)" fill-opacity="0.22"/>
<path d="M1201.72 2116.69C1157.57 2122.5 1113.1 2125.53 1068.56 2125.77L1063 1063L1201.72 2116.69Z" fill="url(#paint17_radial_6321_626)" fill-opacity="0.22"/>
<path d="M416.02 1906.16C380.69 1879.05 347.099 1849.75 315.445 1818.42L1063 1063L416.02 1906.16Z" fill="url(#paint18_radial_6321_626)" fill-opacity="0.22"/>
<path d="M9.31107 1201.72C3.49844 1157.57 0.466569 1113.1 0.233398 1068.56L1063 1063L9.31107 1201.72Z" fill="url(#paint19_radial_6321_626)" fill-opacity="0.22"/>
<path d="M219.839 416.02C246.948 380.69 276.252 347.099 307.576 315.445L1063 1063L219.839 416.02Z" fill="url(#paint20_radial_6321_626)" fill-opacity="0.22"/>
<path d="M924.279 9.31107C968.431 3.49844 1012.9 0.466569 1057.44 0.233398L1063 1063L924.279 9.31107Z" fill="url(#paint21_radial_6321_626)" fill-opacity="0.22"/>
<path d="M1709.98 219.839C1745.31 246.948 1778.9 276.252 1810.55 307.576L1063 1063L1709.98 219.839Z" fill="url(#paint22_radial_6321_626)" fill-opacity="0.22"/>
<path d="M2116.69 924.279C2122.5 968.431 2125.53 1012.9 2125.77 1057.44L1063 1063L2116.69 924.279Z" fill="url(#paint23_radial_6321_626)" fill-opacity="0.22"/>
<defs>
<radialGradient id="paint0_radial_6321_626" cx="0" cy="0" r="1" gradientUnits="userSpaceOnUse" gradientTransform="translate(1063 1063) rotate(45) scale(1062.78)">
<stop stop-color="white"/>
<stop offset="1" stop-color="white" stop-opacity="0"/>
</radialGradient>
<radialGradient id="paint1_radial_6321_626" cx="0" cy="0" r="1" gradientUnits="userSpaceOnUse" gradientTransform="translate(1063 1063) rotate(45) scale(1062.78)">
<stop stop-color="white"/>
<stop offset="1" stop-color="white" stop-opacity="0"/>
</radialGradient>
<radialGradient id="paint2_radial_6321_626" cx="0" cy="0" r="1" gradientUnits="userSpaceOnUse" gradientTransform="translate(1063 1063) rotate(45) scale(1062.78)">
<stop stop-color="white"/>
<stop offset="1" stop-color="white" stop-opacity="0"/>
</radialGradient>
<radialGradient id="paint3_radial_6321_626" cx="0" cy="0" r="1" gradientUnits="userSpaceOnUse" gradientTransform="translate(1063 1063) rotate(45) scale(1062.78)">
<stop stop-color="white"/>
<stop offset="1" stop-color="white" stop-opacity="0"/>
</radialGradient>
<radialGradient id="paint4_radial_6321_626" cx="0" cy="0" r="1" gradientUnits="userSpaceOnUse" gradientTransform="translate(1063 1063) rotate(45) scale(1062.78)">
<stop stop-color="white"/>
<stop offset="1" stop-color="white" stop-opacity="0"/>
</radialGradient>
<radialGradient id="paint5_radial_6321_626" cx="0" cy="0" r="1" gradientUnits="userSpaceOnUse" gradientTransform="translate(1063 1063) rotate(45) scale(1062.78)">
<stop stop-color="white"/>
<stop offset="1" stop-color="white" stop-opacity="0"/>
</radialGradient>
<radialGradient id="paint6_radial_6321_626" cx="0" cy="0" r="1" gradientUnits="userSpaceOnUse" gradientTransform="translate(1063 1063) rotate(45) scale(1062.78)">
<stop stop-color="white"/>
<stop offset="1" stop-color="white" stop-opacity="0"/>
</radialGradient>
<radialGradient id="paint7_radial_6321_626" cx="0" cy="0" r="1" gradientUnits="userSpaceOnUse" gradientTransform="translate(1063 1063) rotate(45) scale(1062.78)">
<stop stop-color="white"/>
<stop offset="1" stop-color="white" stop-opacity="0"/>
</radialGradient>
<radialGradient id="paint8_radial_6321_626" cx="0" cy="0" r="1" gradientUnits="userSpaceOnUse" gradientTransform="translate(1063 1063) rotate(45) scale(1062.78)">
<stop stop-color="white"/>
<stop offset="1" stop-color="white" stop-opacity="0"/>
</radialGradient>
<radialGradient id="paint9_radial_6321_626" cx="0" cy="0" r="1" gradientUnits="userSpaceOnUse" gradientTransform="translate(1063 1063) rotate(45) scale(1062.78)">
<stop stop-color="white"/>
<stop offset="1" stop-color="white" stop-opacity="0"/>
</radialGradient>
<radialGradient id="paint10_radial_6321_626" cx="0" cy="0" r="1" gradientUnits="userSpaceOnUse" gradientTransform="translate(1063 1063) rotate(45) scale(1062.78)">
<stop stop-color="white"/>
<stop offset="1" stop-color="white" stop-opacity="0"/>
</radialGradient>
<radialGradient id="paint11_radial_6321_626" cx="0" cy="0" r="1" gradientUnits="userSpaceOnUse" gradientTransform="translate(1063 1063) rotate(45) scale(1062.78)">
<stop stop-color="white"/>
<stop offset="1" stop-color="white" stop-opacity="0"/>
</radialGradient>
<radialGradient id="paint12_radial_6321_626" cx="0" cy="0" r="1" gradientUnits="userSpaceOnUse" gradientTransform="translate(1063 1063) rotate(45) scale(1062.78)">
<stop stop-color="white"/>
<stop offset="1" stop-color="white" stop-opacity="0"/>
</radialGradient>
<radialGradient id="paint13_radial_6321_626" cx="0" cy="0" r="1" gradientUnits="userSpaceOnUse" gradientTransform="translate(1063 1063) rotate(45) scale(1062.78)">
<stop stop-color="white"/>
<stop offset="1" stop-color="white" stop-opacity="0"/>
</radialGradient>
<radialGradient id="paint14_radial_6321_626" cx="0" cy="0" r="1" gradientUnits="userSpaceOnUse" gradientTransform="translate(1063 1063) rotate(45) scale(1062.78)">
<stop stop-color="white"/>
<stop offset="1" stop-color="white" stop-opacity="0"/>
</radialGradient>
<radialGradient id="paint15_radial_6321_626" cx="0" cy="0" r="1" gradientUnits="userSpaceOnUse" gradientTransform="translate(1063 1063) rotate(45) scale(1062.78)">
<stop stop-color="white"/>
<stop offset="1" stop-color="white" stop-opacity="0"/>
</radialGradient>
<radialGradient id="paint16_radial_6321_626" cx="0" cy="0" r="1" gradientUnits="userSpaceOnUse" gradientTransform="translate(1063 1063) rotate(45) scale(1062.78)">
<stop stop-color="white"/>
<stop offset="1" stop-color="white" stop-opacity="0"/>
</radialGradient>
<radialGradient id="paint17_radial_6321_626" cx="0" cy="0" r="1" gradientUnits="userSpaceOnUse" gradientTransform="translate(1063 1063) rotate(45) scale(1062.78)">
<stop stop-color="white"/>
<stop offset="1" stop-color="white" stop-opacity="0"/>
</radialGradient>
<radialGradient id="paint18_radial_6321_626" cx="0" cy="0" r="1" gradientUnits="userSpaceOnUse" gradientTransform="translate(1063 1063) rotate(45) scale(1062.78)">
<stop stop-color="white"/>
<stop offset="1" stop-color="white" stop-opacity="0"/>
</radialGradient>
<radialGradient id="paint19_radial_6321_626" cx="0" cy="0" r="1" gradientUnits="userSpaceOnUse" gradientTransform="translate(1063 1063) rotate(45) scale(1062.78)">
<stop stop-color="white"/>
<stop offset="1" stop-color="white" stop-opacity="0"/>
</radialGradient>
<radialGradient id="paint20_radial_6321_626" cx="0" cy="0" r="1" gradientUnits="userSpaceOnUse" gradientTransform="translate(1063 1063) rotate(45) scale(1062.78)">
<stop stop-color="white"/>
<stop offset="1" stop-color="white" stop-opacity="0"/>
</radialGradient>
<radialGradient id="paint21_radial_6321_626" cx="0" cy="0" r="1" gradientUnits="userSpaceOnUse" gradientTransform="translate(1063 1063) rotate(45) scale(1062.78)">
<stop stop-color="white"/>
<stop offset="1" stop-color="white" stop-opacity="0"/>
</radialGradient>
<radialGradient id="paint22_radial_6321_626" cx="0" cy="0" r="1" gradientUnits="userSpaceOnUse" gradientTransform="translate(1063 1063) rotate(45) scale(1062.78)">
<stop stop-color="white"/>
<stop offset="1" stop-color="white" stop-opacity="0"/>
</radialGradient>
<radialGradient id="paint23_radial_6321_626" cx="0" cy="0" r="1" gradientUnits="userSpaceOnUse" gradientTransform="translate(1063 1063) rotate(45) scale(1062.78)">
<stop stop-color="white"/>
<stop offset="1" stop-color="white" stop-opacity="0"/>
</radialGradient>
</defs>
</svg>
