<svg width="2124" height="2122" viewBox="0 0 2124 2122" fill="none" xmlns="http://www.w3.org/2000/svg">
<path d="M2114.69 1199.72C2108.88 1243.87 2100.29 1287.61 2088.99 1330.69L1061 1061L2114.69 1199.72Z" fill="url(#paint0_radial_6322_708)" fill-opacity="0.22"/>
<path d="M2123.42 1088.82C2123.13 1099.95 2122.66 1111.07 2122.02 1122.18L1061 1061L2123.42 1088.82Z" fill="url(#paint1_radial_6322_708)" fill-opacity="0.22"/>
<path d="M1707.98 1904.16C1672.65 1931.27 1635.65 1956.13 1597.2 1978.6L1061 1061L1707.98 1904.16Z" fill="url(#paint2_radial_6322_708)" fill-opacity="0.22"/>
<path d="M922.279 2114.69C878.127 2108.88 834.385 2100.29 791.31 2088.99L1061 1061L922.279 2114.69Z" fill="url(#paint3_radial_6322_708)" fill-opacity="0.22"/>
<path d="M217.839 1707.98C190.729 1672.65 165.867 1635.65 143.399 1597.2L1061 1061L217.839 1707.98Z" fill="url(#paint4_radial_6322_708)" fill-opacity="0.22"/>
<path d="M7.31058 922.279C13.1232 878.128 21.7051 834.385 33.0056 791.311L1061 1061L7.31058 922.279Z" fill="url(#paint5_radial_6322_708)" fill-opacity="0.22"/>
<path d="M414.02 217.839C449.349 190.729 486.348 165.867 524.797 143.399L1061 1061L414.02 217.839Z" fill="url(#paint6_radial_6322_708)" fill-opacity="0.22"/>
<path d="M1199.72 7.31058C1210.75 8.76329 1221.77 10.3892 1232.75 12.1878L1061 1061L1199.72 7.31058Z" fill="url(#paint7_radial_6322_708)" fill-opacity="0.22"/>
<path d="M1327.1 32.0704C1337.87 34.8571 1348.6 37.8128 1359.29 40.9365L1061 1061L1327.1 32.0704Z" fill="url(#paint8_radial_6322_708)" fill-opacity="0.22"/>
<path d="M1904.16 414.02C1931.27 449.349 1956.13 486.348 1978.6 524.797L1061 1061L1904.16 414.02Z" fill="url(#paint9_radial_6322_708)" fill-opacity="0.22"/>
<path d="M2042.88 1467.71C2017.31 1529.45 1985.97 1588.64 1949.28 1644.49L1061 1061L2042.88 1467.71Z" fill="url(#paint10_radial_6322_708)" fill-opacity="0.22"/>
<path d="M1467.71 2042.88C1405.97 2068.46 1341.96 2088.15 1276.52 2101.7L1061 1061L1467.71 2042.88Z" fill="url(#paint11_radial_6322_708)" fill-opacity="0.22"/>
<path d="M654.291 2042.88C592.552 2017.31 533.362 1985.97 477.508 1949.28L1061 1061L654.291 2042.88Z" fill="url(#paint12_radial_6322_708)" fill-opacity="0.22"/>
<path d="M741.415 2074.59C730.801 2071.25 720.239 2067.73 709.735 2064.05L1061 1061L741.415 2074.59Z" fill="url(#paint13_radial_6322_708)" fill-opacity="0.22"/>
<path d="M79.118 1467.71C53.5448 1405.97 33.8517 1341.96 20.3002 1276.52L1061 1061L79.118 1467.71Z" fill="url(#paint14_radial_6322_708)" fill-opacity="0.22"/>
<path d="M79.1178 654.291C104.691 592.552 136.03 533.362 172.719 477.509L1061 1061L79.1178 654.291Z" fill="url(#paint15_radial_6322_708)" fill-opacity="0.22"/>
<path d="M654.291 79.118C716.03 53.5448 780.044 33.8517 845.481 20.3002L1061 1061L654.291 79.118Z" fill="url(#paint16_radial_6322_708)" fill-opacity="0.22"/>
<path d="M1467.71 79.1178C1529.45 104.691 1588.64 136.03 1644.49 172.719L1061 1061L1467.71 79.1178Z" fill="url(#paint17_radial_6322_708)" fill-opacity="0.22"/>
<path d="M2042.88 654.291C2068.45 716.03 2088.15 780.044 2101.7 845.481L1061 1061L2042.88 654.291Z" fill="url(#paint18_radial_6322_708)" fill-opacity="0.22"/>
<path d="M1904.16 1707.98C1890.61 1725.64 1876.51 1742.87 1861.87 1759.65L1061 1061L1904.16 1707.98Z" fill="url(#paint19_radial_6322_708)" fill-opacity="0.22"/>
<path d="M1199.72 2114.69C1177.65 2117.59 1155.49 2119.81 1133.29 2121.32L1061 1061L1199.72 2114.69Z" fill="url(#paint20_radial_6322_708)" fill-opacity="0.22"/>
<path d="M414.019 1904.16C396.359 1890.61 379.128 1876.51 362.353 1861.87L1061 1061L414.019 1904.16Z" fill="url(#paint21_radial_6322_708)" fill-opacity="0.22"/>
<path d="M7.31083 1199.72C4.40522 1177.65 2.19375 1155.49 0.679688 1133.29L1061 1061L7.31083 1199.72Z" fill="url(#paint22_radial_6322_708)" fill-opacity="0.22"/>
<path d="M217.839 414.02C231.39 396.359 245.493 379.129 260.127 362.354L1061 1061L217.839 414.02Z" fill="url(#paint23_radial_6322_708)" fill-opacity="0.22"/>
<path d="M922.279 7.31083C944.349 4.40522 966.505 2.19375 988.714 0.679688L1061 1061L922.279 7.31083Z" fill="url(#paint24_radial_6322_708)" fill-opacity="0.22"/>
<path d="M1707.98 217.839C1725.64 231.39 1742.87 245.493 1759.65 260.127L1061 1061L1707.98 217.839Z" fill="url(#paint25_radial_6322_708)" fill-opacity="0.22"/>
<path d="M2114.69 922.279C2117.59 944.349 2119.81 966.505 2121.32 988.714L1061 1061L2114.69 922.279Z" fill="url(#paint26_radial_6322_708)" fill-opacity="0.22"/>
<defs>
<radialGradient id="paint0_radial_6322_708" cx="0" cy="0" r="1" gradientUnits="userSpaceOnUse" gradientTransform="translate(1061 1061) rotate(45) scale(1062.78)">
<stop stop-color="white"/>
<stop offset="1" stop-color="white" stop-opacity="0"/>
</radialGradient>
<radialGradient id="paint1_radial_6322_708" cx="0" cy="0" r="1" gradientUnits="userSpaceOnUse" gradientTransform="translate(1061 1061) rotate(45) scale(1062.78)">
<stop stop-color="white"/>
<stop offset="1" stop-color="white" stop-opacity="0"/>
</radialGradient>
<radialGradient id="paint2_radial_6322_708" cx="0" cy="0" r="1" gradientUnits="userSpaceOnUse" gradientTransform="translate(1061 1061) rotate(45) scale(1062.78)">
<stop stop-color="white"/>
<stop offset="1" stop-color="white" stop-opacity="0"/>
</radialGradient>
<radialGradient id="paint3_radial_6322_708" cx="0" cy="0" r="1" gradientUnits="userSpaceOnUse" gradientTransform="translate(1061 1061) rotate(45) scale(1062.78)">
<stop stop-color="white"/>
<stop offset="1" stop-color="white" stop-opacity="0"/>
</radialGradient>
<radialGradient id="paint4_radial_6322_708" cx="0" cy="0" r="1" gradientUnits="userSpaceOnUse" gradientTransform="translate(1061 1061) rotate(45) scale(1062.78)">
<stop stop-color="white"/>
<stop offset="1" stop-color="white" stop-opacity="0"/>
</radialGradient>
<radialGradient id="paint5_radial_6322_708" cx="0" cy="0" r="1" gradientUnits="userSpaceOnUse" gradientTransform="translate(1061 1061) rotate(45) scale(1062.78)">
<stop stop-color="white"/>
<stop offset="1" stop-color="white" stop-opacity="0"/>
</radialGradient>
<radialGradient id="paint6_radial_6322_708" cx="0" cy="0" r="1" gradientUnits="userSpaceOnUse" gradientTransform="translate(1061 1061) rotate(45) scale(1062.78)">
<stop stop-color="white"/>
<stop offset="1" stop-color="white" stop-opacity="0"/>
</radialGradient>
<radialGradient id="paint7_radial_6322_708" cx="0" cy="0" r="1" gradientUnits="userSpaceOnUse" gradientTransform="translate(1061 1061) rotate(45) scale(1062.78)">
<stop stop-color="white"/>
<stop offset="1" stop-color="white" stop-opacity="0"/>
</radialGradient>
<radialGradient id="paint8_radial_6322_708" cx="0" cy="0" r="1" gradientUnits="userSpaceOnUse" gradientTransform="translate(1061 1061) rotate(45) scale(1062.78)">
<stop stop-color="white"/>
<stop offset="1" stop-color="white" stop-opacity="0"/>
</radialGradient>
<radialGradient id="paint9_radial_6322_708" cx="0" cy="0" r="1" gradientUnits="userSpaceOnUse" gradientTransform="translate(1061 1061) rotate(45) scale(1062.78)">
<stop stop-color="white"/>
<stop offset="1" stop-color="white" stop-opacity="0"/>
</radialGradient>
<radialGradient id="paint10_radial_6322_708" cx="0" cy="0" r="1" gradientUnits="userSpaceOnUse" gradientTransform="translate(1061 1061) rotate(45) scale(1062.78)">
<stop stop-color="white"/>
<stop offset="1" stop-color="white" stop-opacity="0"/>
</radialGradient>
<radialGradient id="paint11_radial_6322_708" cx="0" cy="0" r="1" gradientUnits="userSpaceOnUse" gradientTransform="translate(1061 1061) rotate(45) scale(1062.78)">
<stop stop-color="white"/>
<stop offset="1" stop-color="white" stop-opacity="0"/>
</radialGradient>
<radialGradient id="paint12_radial_6322_708" cx="0" cy="0" r="1" gradientUnits="userSpaceOnUse" gradientTransform="translate(1061 1061) rotate(45) scale(1062.78)">
<stop stop-color="white"/>
<stop offset="1" stop-color="white" stop-opacity="0"/>
</radialGradient>
<radialGradient id="paint13_radial_6322_708" cx="0" cy="0" r="1" gradientUnits="userSpaceOnUse" gradientTransform="translate(1061 1061) rotate(45) scale(1062.78)">
<stop stop-color="white"/>
<stop offset="1" stop-color="white" stop-opacity="0"/>
</radialGradient>
<radialGradient id="paint14_radial_6322_708" cx="0" cy="0" r="1" gradientUnits="userSpaceOnUse" gradientTransform="translate(1061 1061) rotate(45) scale(1062.78)">
<stop stop-color="white"/>
<stop offset="1" stop-color="white" stop-opacity="0"/>
</radialGradient>
<radialGradient id="paint15_radial_6322_708" cx="0" cy="0" r="1" gradientUnits="userSpaceOnUse" gradientTransform="translate(1061 1061) rotate(45) scale(1062.78)">
<stop stop-color="white"/>
<stop offset="1" stop-color="white" stop-opacity="0"/>
</radialGradient>
<radialGradient id="paint16_radial_6322_708" cx="0" cy="0" r="1" gradientUnits="userSpaceOnUse" gradientTransform="translate(1061 1061) rotate(45) scale(1062.78)">
<stop stop-color="white"/>
<stop offset="1" stop-color="white" stop-opacity="0"/>
</radialGradient>
<radialGradient id="paint17_radial_6322_708" cx="0" cy="0" r="1" gradientUnits="userSpaceOnUse" gradientTransform="translate(1061 1061) rotate(45) scale(1062.78)">
<stop stop-color="white"/>
<stop offset="1" stop-color="white" stop-opacity="0"/>
</radialGradient>
<radialGradient id="paint18_radial_6322_708" cx="0" cy="0" r="1" gradientUnits="userSpaceOnUse" gradientTransform="translate(1061 1061) rotate(45) scale(1062.78)">
<stop stop-color="white"/>
<stop offset="1" stop-color="white" stop-opacity="0"/>
</radialGradient>
<radialGradient id="paint19_radial_6322_708" cx="0" cy="0" r="1" gradientUnits="userSpaceOnUse" gradientTransform="translate(1061 1061) rotate(45) scale(1062.78)">
<stop stop-color="white"/>
<stop offset="1" stop-color="white" stop-opacity="0"/>
</radialGradient>
<radialGradient id="paint20_radial_6322_708" cx="0" cy="0" r="1" gradientUnits="userSpaceOnUse" gradientTransform="translate(1061 1061) rotate(45) scale(1062.78)">
<stop stop-color="white"/>
<stop offset="1" stop-color="white" stop-opacity="0"/>
</radialGradient>
<radialGradient id="paint21_radial_6322_708" cx="0" cy="0" r="1" gradientUnits="userSpaceOnUse" gradientTransform="translate(1061 1061) rotate(45) scale(1062.78)">
<stop stop-color="white"/>
<stop offset="1" stop-color="white" stop-opacity="0"/>
</radialGradient>
<radialGradient id="paint22_radial_6322_708" cx="0" cy="0" r="1" gradientUnits="userSpaceOnUse" gradientTransform="translate(1061 1061) rotate(45) scale(1062.78)">
<stop stop-color="white"/>
<stop offset="1" stop-color="white" stop-opacity="0"/>
</radialGradient>
<radialGradient id="paint23_radial_6322_708" cx="0" cy="0" r="1" gradientUnits="userSpaceOnUse" gradientTransform="translate(1061 1061) rotate(45) scale(1062.78)">
<stop stop-color="white"/>
<stop offset="1" stop-color="white" stop-opacity="0"/>
</radialGradient>
<radialGradient id="paint24_radial_6322_708" cx="0" cy="0" r="1" gradientUnits="userSpaceOnUse" gradientTransform="translate(1061 1061) rotate(45) scale(1062.78)">
<stop stop-color="white"/>
<stop offset="1" stop-color="white" stop-opacity="0"/>
</radialGradient>
<radialGradient id="paint25_radial_6322_708" cx="0" cy="0" r="1" gradientUnits="userSpaceOnUse" gradientTransform="translate(1061 1061) rotate(45) scale(1062.78)">
<stop stop-color="white"/>
<stop offset="1" stop-color="white" stop-opacity="0"/>
</radialGradient>
<radialGradient id="paint26_radial_6322_708" cx="0" cy="0" r="1" gradientUnits="userSpaceOnUse" gradientTransform="translate(1061 1061) rotate(45) scale(1062.78)">
<stop stop-color="white"/>
<stop offset="1" stop-color="white" stop-opacity="0"/>
</radialGradient>
</defs>
</svg>
